<?xml version="1.0" standalone="no"?>
<!DOCTYPE svg PUBLIC "-//W3C//DTD SVG 20010904//EN"
 "http://www.w3.org/TR/2001/REC-SVG-20010904/DTD/svg10.dtd">
<svg version="1.0" xmlns="http://www.w3.org/2000/svg"
 width="507.000000pt" height="507.000000pt" viewBox="0 0 507.000000 507.000000"
 preserveAspectRatio="xMidYMid meet">
<metadata>
Created by potrace 1.11, written by Peter Selinger 2001-2013
</metadata>
<g transform="translate(0.000000,507.000000) scale(0.100000,-0.100000)"
fill="#000000" stroke="none">
<path d="M1638 4804 c-4 -3 -67 -16 -85 -17 -7 0 -13 -5 -13 -10 0 -6 -3 -7
-6 -4 -4 4 -20 -3 -35 -14 -16 -11 -29 -18 -29 -14 0 3 -6 1 -12 -5 -7 -5 -38
-29 -68 -53 -64 -49 -119 -107 -120 -124 0 -7 -6 -16 -14 -20 -8 -4 -33 -47
-55 -95 -55 -117 -101 -267 -115 -378 -3 -19 -8 -46 -11 -60 -15 -58 -23 -378
-11 -460 4 -25 8 -56 10 -70 2 -14 7 -52 11 -85 4 -33 11 -64 15 -70 5 -5 10
-23 13 -40 3 -16 12 -54 20 -82 8 -29 10 -53 6 -53 -5 0 -9 3 -9 8 0 26 -173
81 -255 80 -98 -1 -248 -49 -308 -98 -7 -5 -34 -27 -62 -48 -61 -47 -99 -95
-130 -166 -19 -43 -23 -67 -21 -132 1 -48 9 -94 19 -118 9 -21 17 -41 18 -45
2 -23 76 -104 130 -143 35 -26 72 -54 82 -62 9 -9 27 -18 40 -20 25 -3 30 -28
7 -31 -15 -3 -117 -41 -192 -73 -21 -9 -38 -20 -38 -26 0 -5 -3 -6 -6 -3 -4 4
-19 -2 -34 -13 -16 -11 -31 -20 -35 -20 -4 0 -29 -18 -55 -40 -26 -22 -53 -40
-59 -40 -6 0 -11 -4 -11 -8 0 -4 -15 -23 -33 -42 -35 -38 -90 -115 -94 -134
-1 -6 -9 -29 -17 -52 -9 -24 -13 -57 -10 -80 3 -21 6 -49 7 -61 1 -13 6 -23
10 -23 5 0 5 -4 2 -10 -10 -17 92 -106 159 -138 35 -17 83 -33 107 -37 75 -11
203 -12 224 -2 12 6 6 -6 -17 -29 -84 -89 -119 -131 -133 -159 -9 -16 -24 -43
-34 -60 -10 -16 -21 -43 -26 -60 -11 -42 -15 -135 -6 -135 4 0 7 -14 6 -31 -2
-39 53 -152 97 -199 47 -50 107 -88 149 -94 20 -3 49 -11 65 -17 16 -6 40 -14
54 -16 35 -7 213 -11 223 -5 5 2 34 6 65 8 31 2 80 6 107 10 66 8 283 9 365 2
99 -9 208 -34 388 -89 90 -27 167 -47 173 -44 5 4 9 2 9 -2 0 -9 112 -40 173
-48 21 -2 42 -7 48 -10 5 -4 29 -8 52 -11 23 -2 53 -6 67 -9 129 -27 371 -23
503 9 31 7 57 11 57 8 0 -2 7 1 15 8 8 7 15 10 15 7 0 -3 21 1 48 9 26 9 61
17 77 20 17 2 39 8 50 13 11 4 38 14 60 20 43 13 67 22 190 71 44 18 85 33 91
34 7 1 27 9 46 18 18 9 53 24 78 34 25 10 51 24 58 31 11 11 33 16 58 12 4 0
10 3 13 8 9 12 137 60 196 73 27 6 54 15 60 20 5 4 24 10 40 13 17 2 48 12 69
21 22 9 63 16 90 15 58 -1 154 8 167 17 5 3 17 7 27 9 41 8 107 28 112 34 8 9
48 31 60 31 5 0 22 12 38 27 15 16 46 44 68 63 64 57 130 150 117 164 -3 3 -1
6 6 6 7 0 10 3 8 8 -3 4 0 18 6 32 10 26 16 120 7 120 -3 0 -5 13 -6 30 -1 17
-13 43 -30 62 -16 19 -42 50 -58 71 -16 20 -32 34 -36 32 -4 -3 -15 4 -25 15
-10 11 -24 20 -30 20 -7 0 -18 7 -25 15 -10 12 -10 15 0 15 43 0 280 191 280
226 0 7 4 14 9 14 14 0 72 125 66 142 -3 8 1 30 8 49 29 69 0 193 -60 257 -13
14 -23 28 -23 33 0 4 -10 11 -22 15 -12 3 -28 13 -36 20 -7 8 -22 14 -32 14
-10 0 -20 5 -22 11 -2 6 -31 13 -63 16 -33 2 -72 5 -87 6 -15 2 -31 6 -35 11
-4 4 -3 6 2 4 6 -2 25 12 42 30 18 17 30 32 27 32 -3 0 3 9 13 19 25 27 69
115 91 181 22 64 23 202 2 265 -28 87 -147 200 -220 210 -3 0 -12 5 -20 10
-24 15 -179 9 -249 -10 -74 -19 -197 -80 -239 -118 -10 -10 -21 -17 -23 -17
-2 0 -5 21 -6 48 -5 149 -18 280 -28 291 -2 2 0 12 5 22 6 10 6 20 1 23 -4 3
-11 28 -15 56 -8 63 -8 59 -18 100 -5 19 -11 49 -14 65 -3 17 -12 51 -19 78
-8 26 -12 47 -9 47 3 0 0 8 -5 18 -6 11 -12 30 -15 43 -2 13 -11 44 -19 69 -8
25 -18 58 -21 73 -4 16 -18 52 -31 80 -14 28 -25 57 -25 64 0 7 -4 21 -9 31
-5 9 -24 49 -42 87 -55 116 -175 275 -208 275 -6 0 -11 4 -11 8 0 7 -57 45
-62 41 -2 -1 -21 7 -44 19 -23 12 -50 21 -60 22 -50 3 -142 2 -170 -3 -39 -6
-154 -47 -174 -62 -8 -6 -28 -17 -45 -25 -16 -8 -41 -24 -55 -35 -41 -33 -130
-124 -130 -133 0 -4 -9 -18 -21 -31 -12 -12 -22 -29 -23 -37 -1 -9 -7 -19 -13
-22 -15 -10 -62 -99 -56 -106 3 -3 1 -11 -5 -18 -22 -27 -55 -127 -79 -238
-20 -92 -25 -150 -28 -292 -2 -98 1 -195 5 -215 4 -21 11 -65 14 -98 8 -78 13
-106 29 -185 8 -36 10 -68 5 -71 -8 -5 -43 -4 -103 5 -16 3 -32 6 -35 7 -5 2
-70 6 -132 8 -37 1 -38 2 -33 34 3 17 8 57 13 87 12 83 5 555 -8 555 -1 0 -3
18 -5 40 -5 55 -13 96 -41 200 -14 50 -27 101 -30 114 -3 13 -11 36 -19 51 -8
15 -11 30 -8 34 4 3 1 6 -5 6 -7 0 -12 7 -12 16 0 26 -81 187 -115 229 -110
134 -201 197 -302 211 -50 7 -152 12 -155 8z"/>
</g>
</svg>
