<?xml version="1.0" encoding="UTF-8"?>
<!DOCTYPE svg PUBLIC "-//W3C//DTD SVG 1.1//EN" "http://www.w3.org/Graphics/SVG/1.1/DTD/svg11.dtd">
<svg version="1.1" xmlns="http://www.w3.org/2000/svg" xmlns:xlink="http://www.w3.org/1999/xlink" x="0" y="0" width="500" height="498.169" viewBox="0, 0, 500, 498.169">
  <g id="Logo" transform="translate(-100, -100)">
    <path d="M600,350 C600,211.929 488.071,100 350,100 C211.929,100 100,211.929 100,350 C100,467.245 180.715,565.622 289.606,592.638 L289.606,426.396 L238.054,426.396 L238.054,350 L289.606,350 L289.606,317.081 C289.606,231.989 328.114,192.549 411.654,192.549 C427.492,192.549 454.821,195.654 466.001,198.76 L466.001,268.014 C460.1,267.393 449.852,267.082 437.119,267.082 C396.126,267.082 380.287,282.61 380.287,322.982 L380.287,350 L461.946,350 L447.918,426.396 L380.287,426.396 L380.287,598.169 C504.073,583.218 600,477.818 600,350" fill="#FFFFFF"/>
  </g>
</svg>
