<?xml version="1.0" encoding="UTF-8"?>
<!DOCTYPE svg PUBLIC "-//W3C//DTD SVG 1.1//EN" "http://www.w3.org/Graphics/SVG/1.1/DTD/svg11.dtd">
<svg version="1.1" xmlns="http://www.w3.org/2000/svg" xmlns:xlink="http://www.w3.org/1999/xlink" x="0" y="0" width="116.1" height="245.591" viewBox="0, 0, 116.1, 245.591">
  <g id="Layer_1" transform="translate(-0, -14.617)">
    <path d="M111.8,68.4 L79.3,68.4 C79.3,67.3 79.3,66.2 79.3,65.1 L79.3,23 C79.3,23 80.4,11.2 67.7,15.6 C55.1,20 26.1,28.4 26.1,28.4 C26.1,28.4 19.4,29.4 19.4,38.1 C19.4,45.5 19.5,49.8 19.6,68.4 L4.2,68.4 C1.9,68.4 0,70.3 0,72.6 L0,115.1 C0,117.4 1.9,119.3 4.2,119.3 L19.8,119.3 C19.8,141.9 19.9,171.8 19.9,211.9 C19.9,211.9 16.1,286.9 110.9,250 C110.9,250 115.7,247.4 116,243.3 L116,202.2 C116,202.2 116.1,195.9 110.2,198.7 C110.2,198.7 79.4,212.8 79.4,192.6 C79.4,176.4 79.4,175.6 79.4,119.3 L111.9,119.3 C114.2,119.3 116.1,117.4 116.1,115.1 L116.1,72.6 C116,70.3 114.1,68.4 111.8,68.4 z" fill="#FFFFFF"/>
  </g>
</svg>
